<?xml version="1.0" encoding="UTF-8"?>
<svg id="OBJECTS" xmlns="http://www.w3.org/2000/svg" viewBox="0 0 1019.49 304.09">
  <defs>
    <style>
      .cls-1 {
        fill: #033489;
      }
    </style>
  </defs>
  <g>
    <path class="cls-1" d="M49.76,167.4v11.31l-.87,1.3h-18.35v-6.17c-4.58,3.02-8.73,4.52-12.44,4.52-4.87,0-8.54-1.36-11-4.09-2.46-2.72-3.7-6.26-3.7-10.61,0-4.58,1.19-9.13,3.57-13.65l23.57-6.7v-7.22h12v30h6.35l.87,1.3ZM13.41,134.18l-7.65-8.78,9.91-8.09,5.48,6.35,7.48-6.09,7.48,8.78-9.74,8.09-5.57-6.44-7.39,6.17ZM19.93,165.23c3.3,0,6.84-.81,10.61-2.43v-9.22l-16,4.52c-.17,1.1-.26,2.12-.26,3.04,0,2.73,1.88,4.09,5.65,4.09Z"/>
    <path class="cls-1" d="M80.38,166.1l.87.96v12.09l-.87.87h-.87c-1.28,0-2.41-.14-3.39-.43-.99-.29-2-.85-3.04-1.7-1.04-.84-1.84-1.54-2.39-2.09-.55-.55-1.44-1.49-2.65-2.83l-4.35,7.04h-14.78l-1.74-1.74v-10.96l1.74-1.22h12v-21.92h12.18v20.09c1.68,1.22,3.94,1.83,6.78,1.83h.52ZM58.46,133.75l-7.39-8.78,9.57-8,5.57,6.7,7.83-6.35,7.31,8.78-9.48,7.83-5.74-6.7-7.65,6.52ZM66.2,119.48l-7.13-8.52,9.22-7.65,7.04,8.52-9.13,7.65Z"/>
    <path class="cls-1" d="M97.59,203.23l-6-7.13-8.61,7.13-7.83-9.39,9.83-8.09,5.83,7.13,8.7-7.13,7.74,9.39-9.65,8.09ZM80.38,180.01l-1.74-1.74v-10.96l1.74-1.22h10.44v-24.52h12.17v38.44h-22.61Z"/>
    <path class="cls-1" d="M157.17,167.05v12.09l-.87.87h-2.52c-4.87,0-9.07-1.94-12.61-5.83-5.74,3.88-12.61,5.83-20.61,5.83h-6.87l-2.96-13.04.78-.87h11.39c4.81,0,8.84-.41,12.09-1.22-3.6-6.72-7.34-14.46-11.22-23.22l9.13-6.7h.87c3.71,8.58,7.65,16.73,11.83,24.44,1.57,2.84,3.04,4.67,4.44,5.48,1.39.81,3.19,1.22,5.39,1.22h.87l.87.96Z"/>
    <path class="cls-1" d="M211,166.97v12.35l-.87.7h-1.39c-5.68,0-10.06-2.49-13.13-7.48-10.09,4.99-20.47,7.48-31.13,7.48h-8.18l-1.65-1.65v-10.52l1.65-1.74h10.7c5.45,0,9.9-.39,13.35-1.17,3.45-.78,7-2.07,10.65-3.87-4.75-2.84-8.35-4.65-10.78-5.44-2.43-.78-5.33-1.17-8.7-1.17-2.67,0-5.83.58-9.48,1.74l-.96-.52v-12.26c4.35-2.03,8.32-3.04,11.91-3.04,3.88,0,8.29,1.41,13.22,4.22,4.93,2.81,11.16,7.47,18.7,13.96l-1.91,6.87c.87.46,2.29.7,4.26.7h2.87l.87.87Z"/>
    <path class="cls-1" d="M232.05,114.79v65.23h-21.92l-1.13-.96v-11.91l1.13-1.04h9.04v-51.31h12.87Z"/>
    <path class="cls-1" d="M255.53,180.01h-12.18v-65.23h12.18v65.23Z"/>
    <path class="cls-1" d="M338.23,167.05v12.09l-.87.87h-.35c-1.91,0-4.38-1.04-7.39-3.13v11.57c-7.83,4.93-15.8,7.39-23.92,7.39-7.31,0-13.22-2.07-17.74-6.22-4.52-4.15-6.78-10.31-6.78-18.48,0-4.99.99-10.12,2.96-15.39l9.22-1.39.7.7c-1.33,4.81-2,8.93-2,12.35,0,5.22,1.26,9.02,3.78,11.39,2.52,2.38,6.54,3.57,12.04,3.57,3.3,0,6.55-.38,9.74-1.13v-36.18h12v20.09c1.62.64,4.03.96,7.22.96h.52l.87.96ZM301.53,150.44l-7.65-9.04,9.83-8.09,7.48,9.04-9.65,8.09Z"/>
    <path class="cls-1" d="M369.71,167.05v12.09l-.87.87h-.87c-1.28,0-2.41-.14-3.39-.43-.99-.29-2-.85-3.04-1.7-1.04-.84-1.84-1.54-2.39-2.09-.55-.55-1.44-1.49-2.65-2.83l-4.35,7.04h-14.78l-1.74-1.74v-10.96l1.74-1.22h12v-21.92h12.18v20.09c1.68,1.22,3.94,1.83,6.78,1.83h.52l.87.96ZM361.28,185.75l7.74,9.39-9.65,8.09-6-7.13-8.61,7.13-7.83-9.39,9.83-8.09,5.83,7.13,8.7-7.13Z"/>
    <path class="cls-1" d="M425.55,167.66v10.96l-.87,1.39h-8.09c-6.84,0-13.22-1.54-19.13-4.61-6.32,3.07-14.55,4.61-24.7,4.61h-3.91l-.87-1.22v-11.13l.87-1.57h8.26c3.77,0,6.64-.06,8.61-.17-2.78-3.36-5.13-7.91-7.04-13.65l-3.74.87-.78-.7.87-11.65c8.52-2.38,15.94-3.57,22.26-3.57,5.45,0,12.12.99,20,2.96l1.74,13.39c-2.09,4.87-4.93,9.07-8.52,12.61l2.7-.09h11.48l.87,1.57ZM408.07,151.57c-3.25-.81-7.13-1.22-11.65-1.22-2.26,0-4.49.09-6.7.26,1.45,5.51,4.26,10.03,8.44,13.57,4.64-3.59,7.94-7.8,9.91-12.61Z"/>
    <path class="cls-1" d="M446.59,114.79v65.23h-21.92l-1.13-.96v-11.91l1.13-1.04h9.04v-51.31h12.87Z"/>
    <path class="cls-1" d="M470.07,180.01h-12.18v-65.23h12.18v65.23Z"/>
    <path class="cls-1" d="M541.82,167.4v11.31l-.87,1.3h-18.35v-6.17c-4.58,3.02-8.73,4.52-12.44,4.52-4.87,0-8.54-1.36-11-4.09-2.47-2.72-3.7-6.26-3.7-10.61,0-4.58,1.19-9.13,3.57-13.65l23.57-6.7v-7.22h12v30h6.35l.87,1.3ZM505.47,134.18l-7.65-8.78,9.91-8.09,5.48,6.35,7.48-6.09,7.48,8.78-9.74,8.09-5.57-6.44-7.39,6.17ZM511.99,165.23c3.3,0,6.84-.81,10.61-2.43v-9.22l-16,4.52c-.17,1.1-.26,2.12-.26,3.04,0,2.73,1.88,4.09,5.65,4.09Z"/>
    <path class="cls-1" d="M616.44,167.05v12.09l-.87.87h-.87c-2.26,0-4.13-.51-5.61-1.52-1.48-1.01-3.2-2.62-5.17-4.83l-4.09,6.35c-6.78,0-13.83-2.09-21.13-6.26l-4.61,6.26c-5.28,0-10.32-1.91-15.13-5.74l-.78,5.74h-17.22l-.87-.87v-12.17l.87-.87h7.22l2.78-21.05h11.91l-2.52,18.52c2.84,1.45,6.26,2.26,10.26,2.44l2.52-20.96h11.74l-2.17,19.13c3.59,1.1,8.09,1.74,13.48,1.91-1.04-8.12-2.2-15.6-3.48-22.44l12-2.61c1.45,7.77,2.64,15.51,3.57,23.22,1.62,1.22,3.88,1.83,6.78,1.83h.52l.87.96Z"/>
    <path class="cls-1" d="M683.14,166.53l-8.7,13.48c-6.78,0-13.83-2.09-21.13-6.26l-4.61,6.26c-5.51,0-10.7-2.06-15.57-6.17l-.96,6.17h-16.61l-.87-.87v-12.17l.87-.87h6.96l3.04-21.05h11.91l-2.78,18.35c2.84,1.57,6.35,2.43,10.52,2.61l2.52-20.96h11.74l-2.17,19.13c3.59,1.1,8.09,1.74,13.48,1.91-1.22-8.46-2.67-16.38-4.35-23.74l12-3.13c1.97,8.64,3.54,17.74,4.7,27.31Z"/>
    <path class="cls-1" d="M735.15,167.23v11.13l-.87,1.65h-5.74c-2.26,13.16-10.06,19.74-23.39,19.74-3.71,0-7.65-.96-11.83-2.87l-1.39-11.48.78-.7c4.7,1.45,9.25,2.17,13.65,2.17,3.42,0,6.01-.52,7.78-1.57,1.77-1.04,2.94-2.87,3.52-5.48-5.86-.58-11.19-2.04-16-4.39-4.81-2.35-8.81-5.41-12-9.17,1.57-8.18,4.22-14.87,7.96-20.09,3.74-5.22,7.84-7.83,12.31-7.83,3.65,0,6.88,1.39,9.7,4.17,2.81,2.78,4.94,6.19,6.39,10.22,1.45,4.03,2.41,8.48,2.87,13.35h5.39l.87,1.13ZM717.58,124.7l.96,6c-2.78.75-6.55,1.13-11.31,1.13h-9.04v-6.61l4.87.17c-1.33-1.33-2-2.81-2-4.44,0-2.09.67-4.29,2-6.61,2.72-.99,5.19-1.48,7.39-1.48,1.91,0,3.85.23,5.83.7l-.61,5.83c-1.86-.23-3.74-.35-5.65-.35-.87,0-1.83.09-2.87.26,0,.17-.02.38-.04.61-.03.23-.04.38-.04.43,0,2.09.55,3.83,1.65,5.22,3.59-.12,6.38-.49,8.35-1.13l.52.26ZM708.54,152.44c-1.22,0-2.52.73-3.91,2.17-1.39,1.45-2.55,3.51-3.48,6.17,4.29,3.07,9.83,4.81,16.61,5.22-.64-4.23-1.78-7.55-3.44-9.96-1.65-2.41-3.58-3.61-5.78-3.61Z"/>
    <path class="cls-1" d="M762.89,141.57c4,0,7.35,1.87,10.04,5.61,2.7,3.74,4.04,8.31,4.04,13.7,0,4.29-.96,8.52-2.87,12.7l-8.7,8.61-19.13-8.18c-1.8,2.32-3.54,3.9-5.22,4.74-1.68.84-3.83,1.26-6.43,1.26h-.35l-.87-1.13v-11.05l.87-1.74h1.31c1.27,0,2.51-.71,3.7-2.13,1.19-1.42,2.94-4.04,5.26-7.87,2.84-4.58,5.72-8.14,8.65-10.7,2.93-2.55,6.16-3.83,9.7-3.83ZM760.28,155.31c-1.28,0-2.48.64-3.61,1.91-1.13,1.28-2.6,3.6-4.39,6.96l12.7,5.48c.75-2.14,1.13-4.29,1.13-6.44,0-2.32-.58-4.22-1.74-5.7-1.16-1.48-2.52-2.22-4.09-2.22Z"/>
  </g>
  <g>
    <polygon class="cls-1" points="890.77 112.85 890.77 244.44 872.35 244.44 872.35 146.67 826.97 173.3 826.97 244.44 808.54 244.44 808.54 161.12 826.97 150.3 872.35 123.67 890.77 112.85"/>
    <polygon class="cls-1" points="976.21 63.96 976.21 187.94 957.79 177.26 957.79 73.77 890.77 34.93 890.77 108.04 872.35 118.86 872.35 3.75 890.77 14.43 957.79 53.28 976.21 63.96"/>
    <polygon class="cls-1" points="1016.13 215.88 1016.13 302.79 997.7 302.79 997.7 225.33 976.21 212.88 957.79 202.2 930.76 186.53 930.76 302.79 912.34 302.79 912.34 155.73 930.76 166.4 957.79 182.07 976.21 192.75 997.7 205.2 1016.13 215.88"/>
  </g>
</svg>