<?xml version="1.0" encoding="UTF-8"?>
<svg id="OBJECTS" xmlns="http://www.w3.org/2000/svg" viewBox="0 0 1048.33 742.98">
  <defs>
    <style>
      .cls-1 {
        fill: #033489;
      }
    </style>
  </defs>
  <g>
    <path class="cls-1" d="M410.26,526.94v19.67l-1.51,2.27h-31.92v-10.74c-7.97,5.24-15.18,7.87-21.63,7.87-8.47,0-14.85-2.37-19.13-7.11-4.29-4.74-6.43-10.89-6.43-18.45,0-7.96,2.07-15.88,6.2-23.75l40.99-11.65v-12.55h20.87v52.19h11.04l1.51,2.27ZM347.03,469.15l-13.31-15.28,17.24-14.07,9.53,11.04,13.01-10.59,13.01,15.28-16.94,14.07-9.68-11.19-12.86,10.74ZM358.37,523.15c5.75,0,11.9-1.41,18.45-4.24v-16.03l-27.83,7.87c-.3,1.92-.45,3.68-.45,5.29,0,4.74,3.28,7.11,9.83,7.11Z"/>
    <path class="cls-1" d="M540.04,526.33v21.03l-1.51,1.51h-1.51c-3.93,0-7.19-.88-9.76-2.65-2.57-1.76-5.57-4.56-9-8.39l-7.11,11.04c-11.8,0-24.05-3.63-36.76-10.89l-8.02,10.89c-9.18,0-17.95-3.33-26.32-9.98l-1.36,9.98h-29.95l-1.51-1.51v-21.18l1.51-1.51h12.55l4.84-36.61h20.72l-4.39,32.22c4.94,2.52,10.89,3.93,17.85,4.24l4.39-36.45h20.42l-3.78,33.28c6.25,1.92,14.07,3.03,23.45,3.33-1.81-14.12-3.83-27.13-6.05-39.03l20.87-4.54c2.52,13.51,4.59,26.98,6.2,40.39,2.82,2.12,6.75,3.18,11.8,3.18h.91l1.51,1.66Z"/>
    <path class="cls-1" d="M656.06,525.42l-15.13,23.45c-11.8,0-24.05-3.63-36.76-10.89l-8.02,10.89c-9.58,0-18.6-3.58-27.08-10.74l-1.66,10.74h-28.89l-1.51-1.51v-21.18l1.51-1.51h12.1l5.29-36.61h20.72l-4.84,31.92c4.94,2.72,11.04,4.24,18.3,4.54l4.39-36.45h20.42l-3.78,33.28c6.25,1.92,14.07,3.03,23.45,3.33-2.12-14.72-4.64-28.49-7.56-41.29l20.87-5.45c3.43,15.03,6.15,30.86,8.17,47.5Z"/>
    <path class="cls-1" d="M746.51,526.63v19.36l-1.51,2.87h-9.98c-3.93,22.89-17.5,34.34-40.69,34.34-6.45,0-13.31-1.66-20.57-4.99l-2.42-19.97,1.36-1.21c8.17,2.52,16.08,3.78,23.75,3.78,5.95,0,10.46-.91,13.54-2.72,3.07-1.81,5.12-4.99,6.13-9.53-10.19-1.01-19.46-3.55-27.83-7.64-8.37-4.08-15.33-9.4-20.88-15.96,2.72-14.22,7.34-25.87,13.84-34.94,6.5-9.08,13.64-13.61,21.4-13.61,6.35,0,11.97,2.42,16.87,7.26,4.89,4.84,8.6,10.77,11.12,17.77,2.52,7.01,4.18,14.75,4.99,23.22h9.38l1.51,1.97ZM715.96,452.67l1.66,10.44c-4.84,1.31-11.4,1.97-19.66,1.97h-15.73v-11.5l8.47.3c-2.32-2.32-3.48-4.89-3.48-7.71,0-3.63,1.16-7.46,3.48-11.5,4.74-1.71,9.02-2.57,12.86-2.57,3.33,0,6.71.4,10.13,1.21l-1.06,10.13c-3.23-.4-6.5-.6-9.83-.6-1.51,0-3.18.15-4.99.45,0,.3-.03.66-.08,1.06-.05.4-.08.66-.08.76,0,3.63.96,6.66,2.87,9.08,6.25-.2,11.09-.86,14.52-1.97l.91.45ZM700.23,500.92c-2.12,0-4.39,1.26-6.81,3.78-2.42,2.52-4.44,6.1-6.05,10.74,7.46,5.35,17.09,8.37,28.89,9.08-1.11-7.36-3.1-13.13-5.98-17.32-2.87-4.18-6.23-6.28-10.06-6.28Z"/>
    <path class="cls-1" d="M794.77,482.01c6.96,0,12.78,3.25,17.47,9.76,4.69,6.5,7.03,14.45,7.03,23.82,0,7.46-1.66,14.82-4.99,22.08l-15.13,14.97-33.28-14.22c-3.13,4.04-6.15,6.78-9.08,8.24-2.93,1.46-6.66,2.19-11.19,2.19h-.61l-1.51-1.97v-19.21l1.51-3.03h2.27c2.22,0,4.36-1.23,6.43-3.71,2.07-2.47,5.12-7.03,9.15-13.69,4.94-7.96,9.96-14.17,15.05-18.61,5.09-4.44,10.71-6.66,16.87-6.66ZM790.23,505.91c-2.22,0-4.31,1.11-6.28,3.33-1.97,2.22-4.51,6.25-7.64,12.1l22.08,9.53c1.31-3.73,1.97-7.46,1.97-11.19,0-4.03-1.01-7.34-3.03-9.91-2.02-2.57-4.39-3.86-7.11-3.86Z"/>
    <path class="cls-1" d="M85.95,677.62v19.67l-1.51,2.27h-31.92v-10.74c-7.97,5.24-15.18,7.87-21.63,7.87-8.47,0-14.85-2.37-19.13-7.11-4.29-4.74-6.43-10.89-6.43-18.45,0-7.96,2.07-15.88,6.2-23.75l40.99-11.65v-12.55h20.87v52.19h11.04l1.51,2.27ZM22.72,619.84l-13.31-15.28,17.24-14.07,9.53,11.04,13.01-10.59,13.01,15.28-16.94,14.07-9.68-11.19-12.86,10.74ZM34.07,673.84c5.75,0,11.9-1.41,18.45-4.24v-16.03l-27.83,7.87c-.3,1.92-.45,3.68-.45,5.29,0,4.74,3.28,7.11,9.83,7.11Z"/>
    <path class="cls-1" d="M139.19,675.35l1.51,1.66v21.03l-1.51,1.51h-1.51c-2.22,0-4.19-.25-5.9-.76-1.72-.5-3.48-1.49-5.29-2.95-1.81-1.46-3.2-2.67-4.16-3.63-.96-.96-2.5-2.6-4.61-4.92l-7.56,12.25h-25.71l-3.03-3.03v-19.06l3.03-2.12h20.87v-38.12h21.18v34.94c2.92,2.12,6.86,3.18,11.8,3.18h.91ZM101.07,619.09l-12.86-15.28,16.64-13.92,9.68,11.65,13.61-11.04,12.71,15.28-16.49,13.61-9.98-11.65-13.31,11.34ZM114.54,594.28l-12.4-14.82,16.03-13.31,12.25,14.82-15.88,13.31Z"/>
    <path class="cls-1" d="M169.14,739.94l-10.44-12.4-14.97,12.4-13.61-16.34,17.09-14.07,10.13,12.4,15.13-12.4,13.46,16.34-16.79,14.07ZM139.19,699.56l-3.03-3.03v-19.06l3.03-2.12h18.15v-42.66h21.18v66.86h-39.33Z"/>
    <path class="cls-1" d="M272.76,677.02v21.03l-1.51,1.51h-4.39c-8.47,0-15.78-3.38-21.93-10.13-9.98,6.76-21.93,10.13-35.85,10.13h-11.95l-5.14-22.69,1.36-1.51h19.82c8.37,0,15.38-.7,21.03-2.12-6.25-11.7-12.76-25.16-19.51-40.39l15.88-11.65h1.51c6.45,14.93,13.31,29.09,20.57,42.5,2.72,4.94,5.29,8.12,7.71,9.53,2.42,1.41,5.54,2.12,9.38,2.12h1.51l1.51,1.66Z"/>
    <path class="cls-1" d="M366.39,676.87v21.48l-1.51,1.21h-2.42c-9.88,0-17.5-4.33-22.84-13.01-17.55,8.67-35.6,13.01-54.15,13.01h-14.22l-2.87-2.87v-18.3l2.87-3.03h18.61c9.48,0,17.22-.68,23.22-2.04,6-1.36,12.18-3.6,18.53-6.73-8.27-4.94-14.52-8.09-18.76-9.45s-9.28-2.04-15.13-2.04c-4.64,0-10.13,1.01-16.49,3.03l-1.66-.91v-21.33c7.56-3.53,14.47-5.29,20.72-5.29,6.75,0,14.42,2.45,22.99,7.34,8.57,4.89,19.41,12.99,32.52,24.28l-3.33,11.95c1.51.81,3.98,1.21,7.41,1.21h4.99l1.51,1.51Z"/>
    <path class="cls-1" d="M403,586.11v113.45h-38.12l-1.97-1.66v-20.72l1.97-1.82h15.73v-89.25h22.39Z"/>
    <path class="cls-1" d="M443.84,699.56h-21.18v-113.45h21.18v113.45Z"/>
    <path class="cls-1" d="M587.69,677.02v21.03l-1.51,1.51h-.61c-3.33,0-7.62-1.82-12.86-5.45v20.12c-13.61,8.57-27.48,12.86-41.6,12.86-12.71,0-22.99-3.61-30.86-10.82-7.87-7.21-11.8-17.92-11.8-32.14,0-8.67,1.71-17.6,5.14-26.77l16.03-2.42,1.21,1.21c-2.32,8.37-3.48,15.53-3.48,21.48,0,9.08,2.19,15.68,6.58,19.82,4.39,4.13,11.37,6.2,20.95,6.2,5.75,0,11.39-.66,16.94-1.97v-62.93h20.87v34.94c2.82,1.11,7.01,1.66,12.56,1.66h.91l1.51,1.66ZM523.86,648.13l-13.31-15.73,17.09-14.07,13.01,15.73-16.79,14.07Z"/>
    <path class="cls-1" d="M642.45,677.02v21.03l-1.51,1.51h-1.51c-2.22,0-4.19-.25-5.9-.76-1.72-.5-3.48-1.49-5.29-2.95-1.81-1.46-3.2-2.67-4.16-3.63-.96-.96-2.5-2.6-4.61-4.92l-7.56,12.25h-25.71l-3.03-3.03v-19.06l3.03-2.12h20.87v-38.12h21.18v34.94c2.92,2.12,6.86,3.18,11.8,3.18h.91l1.51,1.66ZM627.77,709.54l13.46,16.34-16.79,14.07-10.44-12.4-14.97,12.4-13.61-16.34,17.09-14.07,10.13,12.4,15.13-12.4Z"/>
    <path class="cls-1" d="M739.56,678.08v19.06l-1.51,2.42h-14.07c-11.9,0-22.99-2.67-33.28-8.02-10.99,5.35-25.31,8.02-42.96,8.02h-6.81l-1.51-2.12v-19.36l1.51-2.72h14.37c6.55,0,11.55-.1,14.97-.3-4.84-5.85-8.92-13.76-12.25-23.75l-6.5,1.51-1.36-1.21,1.51-20.27c14.82-4.13,27.73-6.2,38.72-6.2,9.48,0,21.08,1.72,34.79,5.14l3.03,23.29c-3.63,8.47-8.57,15.78-14.82,21.93l4.69-.15h19.97l1.51,2.72ZM709.15,650.09c-5.65-1.41-12.4-2.12-20.27-2.12-3.93,0-7.82.15-11.65.45,2.52,9.58,7.41,17.45,14.67,23.6,8.07-6.25,13.81-13.56,17.24-21.93Z"/>
    <path class="cls-1" d="M776.16,586.11v113.45h-38.12l-1.97-1.66v-20.72l1.97-1.82h15.73v-89.25h22.39Z"/>
    <path class="cls-1" d="M817,699.56h-21.18v-113.45h21.18v113.45Z"/>
  </g>
  <g>
    <polygon class="cls-1" points="819.98 196.45 819.98 422.32 788.35 422.32 788.35 254.49 710.47 300.2 710.47 422.32 678.84 422.32 678.84 279.29 710.47 260.72 788.35 215.02 819.98 196.45"/>
    <polygon class="cls-1" points="966.64 112.52 966.64 325.33 935.01 306.99 935.01 129.37 819.98 62.7 819.98 188.19 788.35 206.76 788.35 9.18 819.98 27.51 935.01 94.19 966.64 112.52"/>
    <polygon class="cls-1" points="1035.15 373.29 1035.15 690.13 1003.52 690.13 1003.52 389.52 966.64 368.14 935.01 349.81 888.61 322.92 888.61 690.13 857 690.13 857 270.04 888.61 288.36 935.01 315.25 966.64 333.59 1003.52 354.96 1035.15 373.29"/>
  </g>
</svg>